# AST/ASF file generated using VICON BodyLanguage
# -----------------------------------------------
:version 1.10
:name VICON
:units
  mass 1.0
  length 0.45
  angle deg
:documentation
   .ast/.asf automatically generated from VICON data using
   VICON BodyBuilder and BodyLanguage model FoxedUp or BRILLIANT.MOD
:root
   order TX TY TZ RX RY RZ
   axis XYZ
   position 0 0 0  
   orientation 0 0 0 
:bonedata
  begin
     id 1 
     name lhipjoint
     direction 0.570549 -0.739093 0.358072 
     length 2.41801 
     axis 0 0 0  XYZ
  end
  begin
     id 2 
     name lfemur
     direction 0.34202 -0.939693 0  
     length 7.44434  
     axis 0 0 20  XYZ
    dof rx ry rz
    limits (-160.0 20.0)
           (-70.0 70.0)
           (-60.0 70.0)
  end
  begin
     id 3 
     name ltibia
     direction 0.34202 -0.939693 0   
     length 7.60047   
     axis 0 0 20   XYZ
    dof rx
    limits (-10.0 170.0)
  end
  begin
     id 4 
     name lfoot
     direction 0.0909041 -0.249757 0.964032   
     length 2.03437   
     axis -90 7.62852e-016 20   XYZ
    dof rx rz
    limits (-45.0 90.0)
           (-70.0 20.0)
  end
  begin
     id 5 
     name ltoes
     direction 1.53547e-011 -4.2174e-011 1   
     length 1.02054   
     axis -90 7.62852e-016 20   XYZ
    dof rx
    limits (-90.0 20.0)
  end
  begin
     id 6 
     name rhipjoint
     direction -0.558096 -0.746754 0.361784   
     length 2.3932  
     axis 0 0 0  XYZ 
  end
  begin
     id 7 
     name rfemur
     direction -0.34202 -0.939693 0   
     length 7.3886   
     axis 0 0 -20   XYZ
    dof rx ry rz
    limits (-160.0 20.0)
           (-70.0 70.0)
           (-70.0 60.0)
  end
  begin
     id 8 
     name rtibia
     direction -0.34202 -0.939693 0   
     length 7.4839   
     axis 0 0 -20   XYZ
    dof rx
    limits (-10.0 170.0)
 end
 begin
     id 9 
     name rfoot
     direction -0.114619 -0.314914 0.942174   
     length 2.25127  
     axis -90 -7.62852e-016 -20   XYZ
    dof rx rz
    limits (-45.0 90.0)
           (-20.0 70.0)
  end
  begin
     id 10 
     name rtoes
     direction -1.53518e-011 -4.21881e-011 1   
     length 1.11821   
     axis -90 -7.62852e-016 -20   XYZ
    dof rx
    limits (-90.0 20.0)
  end
  begin
     id 11 
     name lowerback
     direction -0.00902269 0.996426 -0.0839821   
     length 2.25052   
     axis 0 0 0   XYZ
    dof rx ry rz
    limits (-20.0 45.0)
           (-30.0 30.0)
           (-30.0 30.0)
  end
  begin
     id 12 
     name upperback
     direction 0.0370973 0.999169 -0.0168941   
     length 2.24876   
     axis 0 0 0   XYZ
    dof rx ry rz
    limits (-20.0 45.0)
           (-30.0 30.0)
           (-30.0 30.0)
  end
  begin
     id 13 
     name thorax
     direction 0.0402726 0.998931 0.0227027   
     length 2.26408   
     axis 0 0 0   XYZ
    dof rx ry rz
    limits (-20.0 45.0)
           (-30.0 30.0)
           (-30.0 30.0)
  end
  begin
     id 14 
     name lowerneck
     direction -0.0733697 0.98508 0.155675   
     length 1.58204   
     axis 0 0 0   XYZ
    dof rx ry rz
    limits (-20.0 45.0)
           (-30.0 30.0)
           (-30.0 30.0)
  end
  begin
     id 15 
     name upperneck
     direction 0.0426554 0.993501 -0.105526   
     length 1.61222   
     axis 0 0 0   XYZ
    dof rx ry rz
    limits (-20.0 45.0)
           (-30.0 30.0)
           (-30.0 30.0)
  end
  begin
     id 16
     name head
     direction 0.020792 0.998384 -0.0528868  
     length 1.61527  
     axis 0 0 0   XYZ
    dof rx ry rz
    limits (-20.0 45.0)
           (-30.0 30.0)
           (-30.0 30.0)
  end
  begin
     id 17 
     name lclavicle
     direction 0.967109 0.155462 -0.201325  
     length 3.59357  
     axis 0 0 0   XYZ
    dof ry rz
    limits (-20.0 10.0)
           (0.0 20.0)
  end
  begin
     id 18 
     name lhumerus
     direction 1 -4.48968e-011 2.38195e-027   
     length 5.38154   
     axis 180 -30 -90   XYZ
    dof rx ry rz
    limits (-60.0 90.0)
           (-90.0 90.0)
           (-90.0 90.0)
  end
  begin
     id 19
     name lradius
     direction 1 -4.48961e-011 4.85371e-027   
     length 3.33312   
     axis 180 -30 -90   XYZ
    dof rx
    limits (-10.0 170.0)
  end
  begin
     id 20
     name lwrist
     direction 1 -4.48961e-011 4.76515e-027   
     length 1.66656   
     axis -3.27502e-015 90 90   XYZ
    dof ry
    limits (-180.0 0.0)
 end
  begin
     id 21 
     name lhand
     direction 1 -4.48951e-011 9.53074e-027   
     length 0.710789   
     axis -6.08098e-015 90 90   XYZ
    dof rx rz
    limits (-90.0 90.0)
           (-45.0 45.0)
  end
  begin
     id 22 
     name lfingers
     direction 1 -4.48953e-011 1.90613e-026   
     length 0.573057   
     axis -1.21619e-014 90 90   XYZ
    dof rx
    limits (0.0 90.0)
  end
  begin
     id 23
     name lthumb
     direction 0.707107 -6.34973e-011 0.707107   
     length 0.822798   
     axis -90 45 -9.86923e-015   XYZ
    dof rx rz
    limits (-45.0 45.0)
           (-45.0 45.0)
  end
  begin
     id 24 
     name rclavicle
     direction -0.9585 0.265289 -0.104398   
     length 3.42039  
     axis 0 0 0   XYZ 
    dof ry rz
    limits (-10.0 20.0)
           (-20.0 0.0)
  end
  begin
     id 25 
     name rhumerus
     direction -1 -4.48977e-011 2.21478e-027  
     length 5.16954   
     axis 180 30 90   XYZ
    dof rx ry rz
    limits (-90.0 60.0)
           (-90.0 90.0)
           (-90.0 90.0)
  end
  begin
     id 26 
     name rradius
     direction -1 -4.48967e-011 5.63677e-027   
     length 3.38287   
     axis 180 30 90   XYZ
    dof rx
    limits (-10.0 170.0)
  end
  begin
     id 27 
     name rwrist
     direction -1 -4.48967e-011 4.76501e-027   
     length 1.69144   
     axis -3.27502e-015 -90 -90   XYZ
    dof ry
    limits (-180.0 0.0)
  end
  begin
     id 28
     name rhand
     direction -1 -4.48902e-011 9.53292e-027   
     length 0.817967   
     axis -6.08098e-015 -90 -90   XYZ
    dof rx rz
    limits (-90.0 90.0)
           (-45.0 45.0)
  end
  begin
     id 29
     name rfingers
     direction -1 -4.49012e-011 1.90561e-026   
     length 0.659466   
     axis -1.21619e-014 -90 -90   XYZ
    dof rx
    limits (0.0 90.0)
  end
  begin
     id 30
     name rthumb
     direction -0.707107 -6.34944e-011 0.707107   
     length 0.946865   
     axis -90 -45 9.86923e-015   XYZ
    dof rx rz
    limits (-45.0 45.0)
           (-45.0 45.0)
  end
:hierarchy
  begin
    root lhipjoint rhipjoint lowerback
    lhipjoint lfemur
    lfemur ltibia
    ltibia lfoot
    lfoot ltoes
    rhipjoint rfemur
    rfemur rtibia
    rtibia rfoot
    rfoot rtoes
    lowerback upperback
    upperback thorax
    thorax lowerneck lclavicle rclavicle
    lowerneck upperneck
    upperneck head
    lclavicle lhumerus
    lhumerus lradius
    lradius lwrist
    lwrist lhand lthumb
    lhand lfingers
    rclavicle rhumerus
    rhumerus rradius
    rradius rwrist
    rwrist rhand rthumb
    rhand rfingers
  end

#!OML:ASF F:\twosubjects\two\wednesday\Session 1\Justin1.ASF
:FULLY-SPECIFIED
:DEGREES
83
root 3.85816 17.7548 11.5538 178.411 -1.15231 -179.312
lowerback 3.17 0.781001 2.52737
upperback 0.293297 0.857044 5.55585
thorax -1.52053 0.273699 4.28306
lowerneck -18.9724 -4.46448 -11.2451
upperneck 16.1561 -4.19109 5.64517
head 8.5195 -2.12827 3.19983
rclavicle -6.34247e-015 1.59028e-015
rhumerus 31.2356 10.2895 -61.2982
rradius 32.3547
rwrist -1.14858
rhand -7.43475 25.9129
rfingers 7.12502
rthumb 18.4527 -3.23193
lclavicle -6.34247e-015 1.59028e-015
lhumerus 34.6958 4.50621 47.5868
lradius 33.9447
lwrist -16.4256
lhand 2.39816 34.3779
lfingers 7.12502
lthumb 27.8853 62.3279
rfemur -11.8963 -3.80999 22.4802
rtibia 32.6953
rfoot -14.4847 -4.57236
rtoes 9.4007
lfemur -14.6333 7.17549 -11.2664
ltibia 54.2359
lfoot -11.965 -12.4826
ltoes -17.9518
84
root 3.85516 17.7492 11.4312 178.344 -0.476139 -178.861
lowerback 3.22293 0.749811 3.02764
upperback 0.456287 0.78753 5.73079
thorax -1.37196 0.218592 4.1869
lowerneck -19.5825 -4.40631 -11.5486
upperneck 16.4299 -4.02795 6.01609
head 8.71891 -2.02582 3.39803
rclavicle -4.96962e-015 -3.33958e-014
rhumerus 31.2977 10.4993 -61.3173
rradius 32.4873
rwrist -1.96467
rhand -6.68219 25.503
rfingers 7.12502
rthumb 19.1765 -3.57155
lclavicle -4.96962e-015 -3.33958e-014
lhumerus 34.8961 4.79272 47.235
lradius 34.0754
lwrist -16.4319
lhand 2.32988 34.5881
lfingers 7.12502
lthumb 27.82 62.5486
rfemur -11.2858 -3.44513 22.999
rtibia 32.462
rfoot -14.7785 -4.44666
rtoes 9.58083
lfemur -15.391 7.65183 -10.8035
ltibia 53.7522
lfoot -12.6951 -12.6619
ltoes -18.5852
85
root 3.84685 17.7471 11.3096 178.476 0.00815536 -178.558
lowerback 3.17304 0.700038 3.38168
upperback 0.469249 0.700805 5.86649
thorax -1.32197 0.16111 4.13375
lowerneck -20.0004 -4.19591 -11.1071
upperneck 16.3817 -3.72313 5.6282
head 8.72932 -1.88503 3.23083
rclavicle 1.83876e-015 7.95139e-015
rhumerus 31.1824 10.3907 -61.7085
rradius 32.4562
rwrist -2.00324
rhand -6.48634 25.4464
rfingers 7.12502
rthumb 19.3648 -3.60936
lclavicle 1.83876e-015 7.95139e-015
lhumerus 34.9923 4.86721 46.9123
lradius 34.3068
lwrist -16.3269
lhand 2.42545 34.5295
lfingers 7.12502
lthumb 27.9114 62.4753
rfemur -10.891 -3.1662 23.3358
rtibia 32.2665
rfoot -15.3404 -4.41251
rtoes 10.6337
lfemur -16.4466 7.59731 -10.5817
ltibia 53.1805
lfoot -12.8782 -12.9917
ltoes -15.4128
86
root 3.83534 17.7457 11.1889 178.565 0.629208 -178.52
lowerback 3.72417 0.206412 3.34614
upperback 0.0673842 0.991319 5.96567
thorax -2.08498 0.680187 4.22975
lowerneck -19.4916 -3.99132 -10.1578
upperneck 16.3309 -3.54052 4.41193
head 8.56612 -1.87937 2.6839
rclavicle 2.93479e-015 4.77083e-014
rhumerus 30.2717 10.1965 -62.3462
rradius 32.3207
rwrist -1.41445
rhand -6.44171 25.5197
rfingers 7.12502
rthumb 19.4077 -3.53179
lclavicle 2.93479e-015 4.77083e-014
lhumerus 34.5653 3.98627 46.4497
lradius 34.6448
lwrist -15.5303
lhand 2.13526 34.9821
lfingers 7.12502
lthumb 27.6339 62.9727
rfemur -10.504 -2.83593 23.3478
rtibia 32.1667
rfoot -15.716 -4.1825
rtoes 11.7861
lfemur -17.3909 7.42379 -10.6287
ltibia 52.5045
lfoot -12.1086 -13.1509
ltoes -8.58445
87
root 3.82203 17.7367 11.0701 178.592 1.26409 -178.995
lowerback 3.14056 0.337426 3.06603
upperback 0.561948 1.04241 5.73834
thorax -1.24746 0.693595 4.1545
lowerneck -19.8234 -3.97305 -9.61993
upperneck 15.9568 -3.5383 4.06817
head 8.47861 -1.86345 2.47529
rclavicle -9.93923e-017 5.56597e-014
rhumerus 30.6191 9.50367 -62.7302
rradius 32.1953
rwrist -1.03754
rhand -6.67141 25.6418
rfingers 7.12502
rthumb 19.1868 -3.43178
lclavicle -9.93923e-017 5.56597e-014
lhumerus 35.421 4.102 46.0816
lradius 34.7535
lwrist -15.036
lhand 1.99181 35.5474
lfingers 7.12502
lthumb 27.4968 63.5599
rfemur -10.0867 -2.59566 22.7637
rtibia 32.1206
rfoot -15.8267 -3.72794
rtoes 12.1699
lfemur -18.0654 7.63635 -11.3413
ltibia 51.772
lfoot -12.9316 -12.413
ltoes -12.0597
88
root 3.80617 17.7275 10.9507 178.712 1.60713 -179.153
lowerback 3.01501 0.317075 3.08319
upperback 0.597154 0.990718 5.64439
thorax -1.1358 0.662203 4.05022
lowerneck -20.1162 -3.89931 -9.68182
upperneck 16.2254 -3.44262 4.31082
head 8.61896 -1.79813 2.58091
rclavicle -7.30534e-015 -1.11319e-014
rhumerus 30.4295 9.4297 -62.8608
rradius 32.1549
rwrist -1.18162
rhand -6.96446 25.9025
rfingers 7.12502
rthumb 18.905 -3.19876
lclavicle -7.30534e-015 -1.11319e-014
lhumerus 35.8975 4.43593 46.4251
lradius 34.5411
lwrist -15.6488
lhand 2.35457 35.2337
lfingers 7.12502
lthumb 27.8436 63.1905
rfemur -9.75081 -2.66374 22.5062
rtibia 32.0559
rfoot -15.9029 -3.28211
rtoes 12.624
lfemur -18.844 7.89274 -11.7952
ltibia 51.0915
lfoot -14.7475 -11.2884
ltoes -20.9239
89
root 3.79618 17.7286 10.8303 178.667 2.11901 -179.165
lowerback 3.34395 0.239574 2.98671
upperback 0.436789 0.93521 5.82241
thorax -1.48798 0.641717 4.28967
lowerneck -20.0421 -3.83418 -9.97932
upperneck 16.4546 -3.1447 4.36691
head 8.6719 -1.62834 2.6982
rclavicle -1.03368e-014 -8.26944e-014
rhumerus 30.2092 9.37245 -63.323
rradius 31.8135
rwrist -0.846975
rhand -6.92697 26.3837
rfingers 7.12502
rthumb 18.9411 -2.71412
lclavicle -1.03368e-014 -8.26944e-014
lhumerus 35.7812 4.88677 47.0902
lradius 34.247
lwrist -16.3028
lhand 2.40291 34.724
lfingers 7.12502
lthumb 27.8899 62.6732
rfemur -9.22721 -2.54078 22.4376
rtibia 31.9411
rfoot -16.3801 -2.99502
rtoes 12.2361
lfemur -19.5305 8.00786 -11.9161
ltibia 50.4621
lfoot -15.1837 -10.8512
ltoes -21.9234
90
root 3.7902 17.7251 10.7167 178.54 2.86982 -179.04
lowerback 3.64311 0.317024 2.98386
upperback 0.488419 1.07706 5.97616
thorax -1.61388 0.720778 4.44318
lowerneck -19.8435 -3.75136 -9.92818
upperneck 16.1081 -3.0304 4.18939
head 8.50685 -1.58806 2.64249
rclavicle -5.73991e-015 -2.06736e-014
rhumerus 29.8131 10.1074 -62.5751
rradius 32.1785
rwrist -1.93142
rhand -7.22948 26.1936
rfingers 7.12502
rthumb 18.6501 -2.93238
lclavicle -5.73991e-015 -2.06736e-014
lhumerus 35.8973 4.65084 47.0259
lradius 34.2923
lwrist -15.666
lhand 2.10624 35.3773
lfingers 7.12502
lthumb 27.6062 63.3723
rfemur -8.56209 -2.16461 22.5704
rtibia 31.7015
rfoot -16.7395 -2.85555
rtoes 11.206
lfemur -20.1418 8.17469 -11.7674
ltibia 49.8713
lfoot -15.3532 -10.1961
ltoes -20.9304
91
root 3.77973 17.7164 10.6077 178.654 3.61535 -178.536
lowerback 3.69901 0.435581 3.46379
upperback 0.53839 1.2929 6.15425
thorax -1.60196 0.840606 4.34755
lowerneck -19.817 -3.75602 -9.82386
upperneck 16.0335 -3.03505 4.02354
head 8.47299 -1.60038 2.56759
rclavicle 9.56651e-015 2.54444e-014
rhumerus 29.9018 9.9941 -62.5253
rradius 31.5821
rwrist -1.93007
rhand -7.27635 26.216
rfingers 7.12502
rthumb 18.605 -2.91423
lclavicle 9.56651e-015 2.54444e-014
lhumerus 36.1546 4.10703 46.7476
lradius 34.5407
lwrist -14.8259
lhand 1.94291 36.3427
lfingers 7.12502
lthumb 27.45 64.3626
rfemur -8.09701 -1.87174 23.1171
rtibia 31.3353
rfoot -16.6484 -2.78313
rtoes 10.3741
lfemur -20.9623 8.40014 -11.2469
ltibia 49.2515
lfoot -15.7358 -9.34104
ltoes -20.9953
92
root 3.77094 17.7179 10.4929 178.703 4.25258 -178.36
lowerback 3.73612 0.423994 3.5742
upperback 0.650574 1.30341 6.31541
thorax -1.5099 0.855983 4.45451
lowerneck -20.3886 -3.69471 -10.0478
upperneck 16.4828 -2.83654 4.08897
head 8.71585 -1.51542 2.65321
rclavicle -4.62174e-015 -2.22639e-014
rhumerus 29.5274 11.3905 -61.2327
rradius 32.4844
rwrist -3.60831
rhand -7.34361 25.6181
rfingers 7.12502
rthumb 18.5403 -3.51837
lclavicle -4.62174e-015 -2.22639e-014
lhumerus 36.3488 4.63588 47.1501
lradius 34.4263
lwrist -15.4701
lhand 2.88215 35.5797
lfingers 7.12502
lthumb 28.3479 63.4537
rfemur -7.55725 -1.53907 23.2901
rtibia 30.9513
rfoot -16.8836 -2.78865
rtoes 9.76574
lfemur -21.6691 8.49971 -11.0661
ltibia 48.5256
lfoot -15.9641 -8.88097
ltoes -20.6439
93
root 3.76524 17.7334 10.3683 178.767 4.89577 -178.654
lowerback 3.55466 0.471785 3.27043
upperback 0.764693 1.31001 6.2263
thorax -1.29343 0.851556 4.53555
lowerneck -20.5836 -3.58376 -9.96031
upperneck 16.4407 -2.71412 4.17595
head 8.72494 -1.44252 2.68441
rclavicle 1.21756e-014 3.18055e-014
rhumerus 29.3624 11.9012 -60.939
rradius 32.7538
rwrist -4.11872
rhand -7.42364 25.3958
rfingers 7.12502
rthumb 18.4633 -3.74793
lclavicle 1.21756e-014 3.18055e-014
lhumerus 36.6757 5.16148 47.4713
lradius 34.1665
lwrist -16.2095
lhand 4.38372 34.5289
lfingers 7.12502
lthumb 29.782 62.1554
rfemur -7.01567 -0.963785 22.9546
rtibia 30.564
rfoot -17.3148 -2.84284
rtoes 9.47273
lfemur -22.3371 8.50494 -11.3916
ltibia 47.7367
lfoot -16.2883 -8.46343
ltoes -20.8491
94
root 3.74801 17.7428 10.24 179.035 5.42437 -179.02
lowerback 3.15102 0.524495 3.06419
upperback 0.688905 1.31084 6.04066
thorax -1.14373 0.837657 4.46224
lowerneck -20.0492 -3.45973 -9.59485
upperneck 16.0062 -2.66672 3.969
head 8.47147 -1.41752 2.55959
rclavicle -4.87022e-015 -1.00187e-013
rhumerus 28.8031 11.286 -62.0243
rradius 32.6159
rwrist -2.81517
rhand -7.19213 25.1652
rfingers 7.12502
rthumb 18.686 -3.95734
lclavicle -4.87022e-015 -1.00187e-013
lhumerus 36.7833 4.99901 47.4448
lradius 34.1388
lwrist -16.2856
lhand 4.41283 34.2411
lfingers 7.12502
lthumb 29.8098 61.8627
rfemur -6.68792 -0.666352 22.4577
rtibia 30.1545
rfoot -17.4907 -2.69973
rtoes 8.95199
lfemur -23.1721 8.38939 -11.891
ltibia 46.8486
lfoot -16.7344 -7.84646
ltoes -21.8011
95
root 3.72532 17.7318 10.1238 179.102 5.57476 -178.915
lowerback 3.159 0.437915 3.30774
upperback 0.734782 1.20982 6.06134
thorax -1.09162 0.790152 4.35096
lowerneck -20.2565 -3.46247 -9.2757
upperneck 15.9675 -2.65049 3.52189
head 8.48229 -1.43535 2.35516
rclavicle -8.54774e-015 5.08889e-014
rhumerus 28.9789 11.1044 -62.1594
rradius 32.2191
rwrist -2.33522
rhand -6.95618 25.0136
rfingers 7.12502
rthumb 18.913 -4.08695
lclavicle -8.54774e-015 5.08889e-014
lhumerus 37.0253 4.97574 47.6383
lradius 34.1343
lwrist -16.4354
lhand 3.1825 33.8438
lfingers 7.12502
lthumb 28.6349 61.6697
rfemur -6.12915 -0.675005 22.4603
rtibia 29.756
rfoot -17.6465 -2.58804
rtoes 8.47161
lfemur -23.8172 7.97991 -11.8467
ltibia 45.8766
lfoot -17.0579 -7.41179
ltoes -21.5989
96
root 3.71181 17.7318 10.0168 179.069 5.81921 -178.897
lowerback 3.40778 0.317517 3.30424
upperback 0.772152 1.07524 6.13365
thorax -1.18742 0.726826 4.432
lowerneck -20.5808 -3.41702 -9.28044
upperneck 16.1089 -2.52064 3.36761
head 8.5761 -1.39062 2.31941
rclavicle -6.75868e-015 -3.18055e-015
rhumerus 28.9583 11.4665 -61.805
rradius 32.2053
rwrist -2.53123
rhand -6.96776 25.4463
rfingers 7.12502
rthumb 18.9018 -3.6553
lclavicle -6.75868e-015 -3.18055e-015
lhumerus 37.119 4.99336 47.5931
lradius 34.0785
lwrist -16.2893
lhand 2.507 33.8311
lfingers 7.12502
lthumb 27.9894 61.7642
rfemur -5.509 -0.368956 22.4508
rtibia 29.3511
rfoot -17.813 -2.72004
rtoes 7.69305
lfemur -24.3087 7.60281 -11.8117
ltibia 44.8511
lfoot -17.2079 -7.10498
ltoes -18.7745
